<svg xmlns="http://www.w3.org/2000/svg" viewBox="0 0 512 512" role="img" aria-label="Map and location pin">
  <defs>
    <clipPath id="circleClip">
      <circle cx="256" cy="256" r="240"/>
    </clipPath>
  </defs>
  <circle cx="256" cy="256" r="240" fill="#d9c8b5"/>
  <g clip-path="url(#circleClip)">
    <rect x="24" y="180" width="96" height="320" transform="rotate(-18 24 180)" fill="#8ea6db"/>
    <rect x="140" y="44" width="70" height="460" transform="rotate(-18 140 44)" fill="#efe18f"/>
    <rect x="378" y="170" width="64" height="300" transform="rotate(-18 378 170)" fill="#efe18f"/>
    <rect x="250" y="280" width="210" height="88" transform="rotate(-18 250 280)" fill="#89c93a"/>
  </g>
  <g transform="translate(0,-8)">
    <path d="M365 126c-57 0-103 46-103 103 0 73 103 184 103 184s103-111 103-184c0-57-46-103-103-103z" fill="#e31929"/>
    <circle cx="365" cy="229" r="56" fill="#fff"/>
    <circle cx="365" cy="229" r="34" fill="#e31929"/>
  </g>
</svg>
